<svg  xmlns="http://www.w3.org/2000/svg" viewBox="0 0 414.07 91.37"><defs><style>.cls-1,.cls-2{fill:#462005;}.cls-2{font-size:66.04px;font-family:Nunito-Bold, Nunito;font-weight:700;letter-spacing:0em;}.cls-3{letter-spacing:0em;}</style></defs><g id="Layer_2" data-name="Layer 2"><g id="Layer_1-2" data-name="Layer 1"><path class="cls-1" d="M19.8,36.15a3.49,3.49,0,0,1-4.93,4.93L1,27.22a3.49,3.49,0,0,1,0-4.93L14.87,8.44a3.49,3.49,0,1,1,4.93,4.93L8.41,24.76Z"/><path class="cls-1" d="M72.27,36.15a3.48,3.48,0,1,0,4.92,4.93L91,27.22a3.47,3.47,0,0,0,0-4.93L77.19,8.44a3.48,3.48,0,1,0-4.92,4.93L83.66,24.76Z"/><rect class="cls-1" x="25.76" y="-5.7" width="7.35" height="102.78" rx="3.67" transform="translate(25.18 -8.49) rotate(28.3)"/><path class="cls-1" d="M60.45,53.07a9.49,9.49,0,0,0,10.43-.53,35,35,0,0,0-.16,9.67c2,15.7,14.2,25.3,17.93,28a135.28,135.28,0,0,0-67.31-4.07c9.72-4.84,17.9-8.28,23.81-10.6C54.49,71.88,60,70.27,62,65.24,63.73,61,62.05,56.24,60.45,53.07Z"/><ellipse class="cls-1" cx="65.28" cy="46.08" rx="5.85" ry="5.3"/><text class="cls-2" transform="translate(119.38 73.14) scale(0.95 1)">t<tspan class="cls-3" x="25.03" y="0">ech JHAE</tspan></text></g></g></svg>